<?xml version="1.0" encoding="UTF-8" standalone="no"?><!-- Generator: Gravit.io --><svg xmlns="http://www.w3.org/2000/svg" xmlns:xlink="http://www.w3.org/1999/xlink" style="isolation:isolate" viewBox="-14 -14 892.895 732.879" width="892.895pt" height="732.879pt"><defs><clipPath id="_clipPath_biNde1JOULxe9b5R5jZDuklHMRZtxhc4"><rect x="-14" y="-14" width="892.895" height="732.879"/></clipPath></defs><g clip-path="url(#_clipPath_biNde1JOULxe9b5R5jZDuklHMRZtxhc4)"><defs><filter id="NOlD9xxDKAnp6EaQVQCyzBrPGVETsjEt" x="-200%" y="-200%" width="400%" height="400%" filterUnits="objectBoundingBox" color-interpolation-filters="sRGB"><feGaussianBlur xmlns="http://www.w3.org/2000/svg" in="SourceGraphic" stdDeviation="7.728496313110251"/><feOffset xmlns="http://www.w3.org/2000/svg" dx="10" dy="10" result="pf_100_offsetBlur"/><feFlood xmlns="http://www.w3.org/2000/svg" flood-color="#000000" flood-opacity="0.87"/><feComposite xmlns="http://www.w3.org/2000/svg" in2="pf_100_offsetBlur" operator="in" result="pf_100_dropShadow"/><feBlend xmlns="http://www.w3.org/2000/svg" in="SourceGraphic" in2="pf_100_dropShadow" mode="normal"/></filter></defs><g filter="url(#NOlD9xxDKAnp6EaQVQCyzBrPGVETsjEt)"><path d=" M 32.371 627.678 L 812.524 627.678 C 830.39 627.678 844.895 640.493 844.895 656.278 L 844.895 656.278 C 844.895 672.064 830.39 684.879 812.524 684.879 L 32.371 684.879 C 14.505 684.879 0 672.064 0 656.278 L 0 656.278 C 0 640.493 14.505 627.678 32.371 627.678 Z " fill="rgb(255,255,255)"/></g><defs><filter id="cVqkB8VMs4UPsLPrmo1xKDCxOfeZ9cZR" x="-200%" y="-200%" width="400%" height="400%" filterUnits="objectBoundingBox" color-interpolation-filters="sRGB"><feGaussianBlur xmlns="http://www.w3.org/2000/svg" in="SourceGraphic" stdDeviation="7.728496313110251"/><feOffset xmlns="http://www.w3.org/2000/svg" dx="10" dy="10" result="pf_100_offsetBlur"/><feFlood xmlns="http://www.w3.org/2000/svg" flood-color="#000000" flood-opacity="0.87"/><feComposite xmlns="http://www.w3.org/2000/svg" in2="pf_100_offsetBlur" operator="in" result="pf_100_dropShadow"/><feBlend xmlns="http://www.w3.org/2000/svg" in="SourceGraphic" in2="pf_100_dropShadow" mode="normal"/></filter></defs><g filter="url(#cVqkB8VMs4UPsLPrmo1xKDCxOfeZ9cZR)"><path d=" M 493.8 127.602 L 495.253 180.12 C 511.408 172.879 530.614 167.793 553.815 167.19 C 576.416 166.563 595.74 168.16 612.841 170.849 L 611.453 120.175 C 594.104 117.678 574.61 116.145 552.435 116.746 C 530.294 117.358 510.921 121.597 493.8 127.602 Z  M 496.764 236.947 L 498.216 289.464 C 514.372 282.224 533.577 277.138 556.779 276.535 C 579.38 275.908 598.703 277.505 615.805 280.194 L 614.416 229.52 C 597.068 227.023 577.574 225.49 555.398 226.091 C 533.268 226.668 513.93 230.917 496.764 236.947 Z  M 499.773 346.267 L 501.225 398.785 C 517.381 391.545 536.586 386.458 559.788 385.856 C 582.389 385.228 601.712 386.825 618.814 389.514 L 617.425 338.84 C 600.077 336.344 580.583 334.81 558.407 335.411 C 536.242 335.978 516.893 340.262 499.773 346.267 Z  M 230.549 349.37 L 231.938 400.044 C 248.843 396.445 268.052 393.791 290.643 393.198 C 313.855 392.561 333.298 396.587 349.812 402.94 L 348.36 350.423 C 330.898 345.348 311.358 342.167 289.263 342.754 C 267.087 343.355 247.713 345.922 230.549 349.37 Z  M 224.577 130.704 L 225.965 181.379 C 242.87 177.779 262.07 175.161 284.671 174.533 C 307.883 173.896 327.325 177.922 343.84 184.275 L 342.432 131.733 C 324.961 126.693 305.431 123.477 283.29 124.089 C 261.115 124.69 241.741 127.257 224.577 130.704 Z  M 227.54 240.049 L 228.929 290.724 C 245.834 287.124 265.043 284.47 287.634 283.878 C 310.846 283.241 330.289 287.266 346.803 293.62 L 345.396 241.078 C 327.934 236.003 308.394 232.822 286.299 233.409 C 264.124 234.01 244.705 236.602 227.54 240.049 Z  M 549.228 0.111 C 483.232 1.919 439.486 34.302 416.136 58.074 C 391.53 35.618 346.104 5.691 280.108 7.499 C 183.471 10.146 114.299 58.394 114.299 58.394 L 127.648 540.553 C 128.062 555.378 145.308 563.885 156.861 554.603 C 181.715 534.618 224.985 511.707 293.815 509.823 C 359.615 508.034 397.03 542.323 415.604 567.71 C 422.966 577.785 438.123 576.633 445 566.2 C 462.335 539.893 497.735 504.25 562.959 502.481 C 631.869 500.583 676.334 521.146 702.259 539.774 C 714.334 548.427 730.968 539.049 730.589 524.233 L 717.558 41.902 C 717.558 41.902 645.856 -2.501 549.228 0.111 Z  M 402.519 482.887 C 376.409 465.914 339.767 450.774 292.282 452.039 C 244.371 453.331 208.155 463.278 183.471 473.283 L 172.973 90.938 C 189.177 82.116 225.204 66.757 281.697 65.223 C 334.895 63.781 370.725 89.016 392.406 112.243 L 402.519 482.887 Z  M 671.201 459.983 C 645.981 451.327 609.267 443.384 561.346 444.711 C 513.851 446.011 478.094 463.16 452.963 481.506 L 442.85 110.863 C 463.192 86.469 497.573 59.302 550.806 57.87 C 607.264 56.326 644.086 69.696 660.748 77.613 L 671.201 459.983 Z " fill="rgb(255,255,255)"/></g></g></svg>