<?xml version="1.0" encoding="UTF-8" standalone="no"?><!-- Generator: Gravit.io --><svg xmlns="http://www.w3.org/2000/svg" xmlns:xlink="http://www.w3.org/1999/xlink" style="isolation:isolate" viewBox="110.123 -31.678 844.895 684.879" width="844.895pt" height="684.879pt"><defs><clipPath id="_clipPath_s3UmaX0jCiezxBHdi0h8qinQEpoZM6Le"><rect x="110.123" y="-31.678" width="844.895" height="684.879"/></clipPath></defs><g clip-path="url(#_clipPath_s3UmaX0jCiezxBHdi0h8qinQEpoZM6Le)"><path d=" M 142.494 596 L 922.646 596 C 940.512 596 955.018 608.816 955.018 624.601 L 955.018 624.601 C 955.018 640.386 940.512 653.202 922.646 653.202 L 142.494 653.202 C 124.628 653.202 110.123 640.386 110.123 624.601 L 110.123 624.601 C 110.123 608.816 124.628 596 142.494 596 Z " fill="rgb(0,0,0)"/><path d=" M 603.923 95.925 L 605.375 148.442 C 621.531 141.202 640.736 136.115 663.938 135.513 C 686.539 134.885 705.862 136.482 722.964 139.171 L 721.575 88.497 C 704.227 86.001 684.733 84.467 662.557 85.068 C 640.417 85.68 621.043 89.919 603.923 95.925 Z  M 606.886 205.27 L 608.339 257.787 C 624.494 250.547 643.7 245.46 666.901 244.858 C 689.502 244.23 708.826 245.827 725.927 248.516 L 724.539 197.842 C 707.19 195.346 687.696 193.812 665.521 194.413 C 643.391 194.99 624.052 199.239 606.886 205.27 Z  M 609.895 314.59 L 611.348 367.107 C 627.503 359.867 646.709 354.78 669.91 354.178 C 692.511 353.55 711.835 355.147 728.936 357.837 L 727.548 307.162 C 710.199 304.666 690.705 303.133 668.53 303.734 C 646.365 304.3 627.016 308.584 609.895 314.59 Z  M 340.672 317.692 L 342.06 368.366 C 358.965 364.767 378.175 362.113 400.766 361.52 C 423.978 360.883 443.42 364.909 459.935 371.262 L 458.482 318.745 C 441.021 313.67 421.481 310.489 399.385 311.076 C 377.21 311.677 357.836 314.245 340.672 317.692 Z  M 334.699 99.027 L 336.088 149.701 C 352.993 146.102 372.192 143.483 394.793 142.855 C 418.005 142.218 437.448 146.244 453.962 152.597 L 452.555 100.055 C 435.083 95.015 415.553 91.8 393.413 92.411 C 371.237 93.012 351.863 95.579 334.699 99.027 Z  M 337.663 208.372 L 339.051 259.046 C 355.956 255.447 375.166 252.793 397.757 252.2 C 420.969 251.563 440.411 255.589 456.926 261.942 L 455.518 209.4 C 438.057 204.325 418.517 201.145 396.422 201.731 C 374.246 202.332 354.827 204.924 337.663 208.372 Z  M 659.351 -31.567 C 593.355 -29.759 549.608 2.624 526.259 26.396 C 501.652 3.941 456.227 -25.987 390.231 -24.179 C 293.593 -21.532 224.422 26.717 224.422 26.717 L 237.77 508.875 C 238.184 523.7 255.431 532.208 266.983 522.926 C 291.838 502.94 335.108 480.029 403.937 478.145 C 469.738 476.356 507.152 510.645 525.726 536.033 C 533.089 546.107 548.246 544.955 555.123 534.522 C 572.457 508.215 607.857 472.572 673.082 470.803 C 741.991 468.905 786.456 489.468 812.382 508.096 C 824.456 516.749 841.091 507.371 840.712 492.556 L 827.68 10.225 C 827.68 10.225 755.978 -34.179 659.351 -31.567 Z  M 512.641 451.209 C 486.532 434.237 449.889 419.096 402.405 420.362 C 354.494 421.653 318.278 431.6 293.594 441.606 L 283.096 59.26 C 299.299 50.439 335.327 35.079 391.819 33.545 C 445.017 32.103 480.847 57.339 502.528 80.565 L 512.641 451.209 Z  M 781.323 428.305 C 756.104 419.649 719.39 411.706 671.469 413.033 C 623.974 414.334 588.216 431.483 563.086 449.829 L 552.973 79.185 C 573.314 54.791 607.696 27.624 660.929 26.192 C 717.386 24.648 754.209 38.018 770.87 45.935 L 781.323 428.305 Z " fill="rgb(0,0,0)"/></g></svg>